<svg width="79" height="30" viewBox="0 0 79 30" fill="none" xmlns="http://www.w3.org/2000/svg">
<path fill-rule="evenodd" clip-rule="evenodd" d="M14.1977 9.48706C14.1948 10.3375 14.2392 11.2393 14.1956 12.0379C12.35 11.3738 9.69172 10.948 8.01083 12.2811C6.98487 13.0676 6.85497 14.3616 6.99401 15.5615C7.11893 16.519 7.98925 17.332 8.8658 17.6383C10.5961 18.2575 12.7343 17.8554 14.3662 17.3167C14.3866 18.1604 14.3036 19.0175 14.3065 19.8554C14.0159 20.0662 13.6665 20.1326 13.334 20.2397C10.3931 20.8282 6.80019 20.6361 4.95122 17.9666C3.65839 16.3081 3.55629 13.7187 4.5312 11.881C5.79207 9.41527 8.40263 8.53664 11.1053 8.77861C12.1624 8.85995 13.2784 8.96869 14.1977 9.48706ZM25.9722 10.9202C26.1183 11.1605 26.242 11.4058 26.2735 11.6934L26.2465 16.8319C26.2237 16.8726 26.242 16.9415 26.1909 16.9593L23.3322 16.934L23.3264 14.9933C21.6376 15.0161 19.8509 15.0008 18.4294 15.8138C18.075 16.0479 17.8384 16.4185 17.8313 16.8431C17.8699 17.2328 18.0289 17.5993 18.3817 17.8255C19.2022 18.3339 20.2402 18.1392 21.2234 18.1683C22.9242 18.1741 24.657 18.023 26.2092 17.5653L26.2386 17.6051L26.2349 19.9949C25.1189 20.4431 23.8858 20.6278 22.6175 20.7332C21.2118 20.7708 19.8052 20.7033 18.4095 20.5315C16.9647 20.2646 15.3009 19.3229 14.9049 17.7707C14.5866 16.4866 14.9751 15.1556 16.0704 14.3629C18.0301 12.8426 20.8026 13.1294 23.323 13.0053C23.3737 12.8779 23.3542 12.6886 23.3579 12.5222C23.1093 11.7839 22.3249 11.5274 21.6235 11.495C19.7318 11.3369 17.7915 11.4659 15.9338 11.8303C15.906 11.8536 15.8591 11.8374 15.8247 11.8428L15.8006 9.55679L15.84 9.51031L18.7149 9.15255C20.334 9.07245 22.0277 8.95084 23.56 9.34886C24.4706 9.60867 25.355 10.1113 25.9722 10.9202ZM37.4615 9.74273C38.4194 10.1345 39.0561 11.1103 39.1412 12.1204C39.3035 13.3249 39.0187 14.6551 37.865 15.2764C37.2021 15.6395 36.463 15.8317 35.7358 16.0458L39.6409 20.2675V20.2904L35.6425 20.2929L35.5337 20.2655L30.8393 14.8273C30.8223 14.8215 30.8281 14.7991 30.8281 14.787C32.4338 14.5293 34.0691 14.3508 35.5042 13.7042C35.8126 13.5228 36.1492 13.261 36.2426 12.8974C36.2467 12.731 36.2393 12.5355 36.1401 12.3989C35.6288 11.8303 34.8755 11.7747 34.1844 11.6207C32.7173 11.412 31.3224 11.5709 29.8171 11.546C28.9787 11.5722 28.0764 11.5701 27.2219 11.6826C27.1733 10.9073 27.1758 10.0569 27.1841 9.20111L31.3884 9.07037C33.4108 9.11852 35.6151 8.97492 37.4615 9.74273ZM49.8586 10.313C50.4786 10.8924 50.9513 11.5539 50.914 12.3989L50.8928 20.534H48.1337L48.1038 20.4941L48.12 13.8067C48.1507 12.9103 47.4871 12.0902 46.6732 11.7531L46.0975 11.5929C44.5329 11.5 43.0309 11.7175 41.5924 11.9964C41.1329 12.0989 40.6805 12.2014 40.2281 12.3039C40.19 11.4369 40.2394 10.6948 40.2298 9.80415C41.8625 9.34471 43.6634 9.0849 45.4057 9.15836C46.9625 9.23431 48.5728 9.42979 49.8586 10.313ZM74.304 9.73899C74.3081 10.589 74.3285 11.4282 74.3135 12.2898C72.3533 11.5979 69.5332 11.1451 67.8677 12.7708C67.1065 13.5722 66.9459 14.7289 67.1007 15.796C67.2206 16.8107 68.1893 17.674 69.1223 17.957C70.8692 18.5082 72.7837 18.0795 74.4675 17.5565C74.453 18.3841 74.4795 19.3316 74.4252 20.0903C73.505 20.6004 72.3687 20.6917 71.2896 20.7436C68.5798 20.9561 65.9324 19.9841 64.637 17.5619C63.9879 16.4028 63.8514 14.9738 64.1133 13.6378C64.4374 11.744 66.0498 9.88882 67.9166 9.35177C69.6805 8.77612 71.7623 8.97243 73.5245 9.38455C73.7968 9.48043 74.0674 9.56966 74.304 9.73899ZM61.9123 10.2146C62.4448 10.5998 62.9329 11.1115 63.0886 11.7473L63.0595 17.1079L62.9794 17.1378L60.2095 17.0979L60.1796 16.9892L60.19 15.2253L60.1609 15.1564C58.8511 15.1589 57.5873 15.2066 56.3721 15.5121C55.725 15.7026 54.9755 15.9636 54.7016 16.6729C54.6302 17.0303 54.692 17.4428 54.9083 17.7333C55.3897 18.2285 56.0463 18.3534 56.7469 18.3472C58.8619 18.3472 61.0615 18.3472 63.0429 17.7288L63.0666 17.8147L63.069 20.158C60.7054 21.0681 57.9654 21.0287 55.3764 20.722C54.1961 20.5049 53.0597 20.0281 52.2562 19.0141C51.5394 18.1314 51.3921 16.6277 51.9619 15.6283C52.5189 14.5417 53.6789 13.9491 54.7497 13.6112C56.5024 13.1327 58.3028 13.2514 60.1688 13.1684C60.3473 12.6899 59.9758 12.3836 59.7264 12.0586C59.2333 11.6793 58.5962 11.6689 57.97 11.6178C56.0496 11.5228 54.3459 11.7361 52.6563 12.2541C52.6239 11.3983 52.6148 10.513 52.6297 9.7033C53.2888 9.57588 53.9657 9.48789 54.6547 9.40613C55.9969 9.23099 57.3985 9.22269 58.8009 9.2534C59.9434 9.30487 60.998 9.59207 61.9123 10.2146Z" fill="black"/>
<path fill-rule="evenodd" clip-rule="evenodd" d="M27.292 13.0302H30.2047V20.2713H27.292V13.0302ZM40.3232 13.0302H43.2359V20.2713H40.3232V13.0302Z" fill="black"/>
</svg>
