<svg width="21" height="21" viewBox="0 0 21 21" fill="none" xmlns="http://www.w3.org/2000/svg">
<g clip-path="url(#clip0_17_13)">
<path fill-rule="evenodd" clip-rule="evenodd" d="M10.324 20.2777C4.96556 20.2754 0.622833 15.9304 0.622833 10.5729C0.622833 5.21293 4.96803 0.868007 10.324 0.870393C15.6874 0.870393 20.0301 5.21542 20.0301 10.5729C20.0301 15.9327 15.6849 20.2777 10.324 20.2777ZM2.3672 15.2277L2.54091 15.0911C2.03906 14.1616 1.84615 13.5419 1.62654 12.854C1.60723 12.8027 1.59522 12.7684 1.57346 12.7392C1.55898 12.7781 1.56627 12.8125 1.56863 12.8563C1.70857 13.6077 2.04635 14.5545 2.3672 15.2277ZM10.4591 1.83404L11.7788 9.59461L10.3989 10.4119L10.3531 1.83653C10.3531 1.73406 10.2855 1.73406 10.271 1.83653L9.49166 9.97033L8.91271 9.63126L10.1528 1.83664C5.34678 1.86581 1.55169 5.7668 1.55169 10.5875C1.55169 12.1098 2.02459 13.7103 2.70487 14.9568L8.76065 9.86537L9.34196 10.2019L2.54327 15.1423C2.37921 15.2594 2.42746 15.3155 2.60836 15.2156L10.2009 10.7802V12.3758L2.86883 15.2057C4.40323 17.7405 7.1247 19.3556 10.2998 19.3556C13.4677 19.3556 16.2349 17.7382 17.7693 15.2082L10.4494 12.3807V10.7851L17.7525 15.0447C17.9188 15.1374 17.9672 15.0862 17.8103 14.974L11.3084 10.2045L11.8898 9.86786L17.9408 14.9642C18.6357 13.7103 19.094 12.1074 19.094 10.5729C19.094 5.81311 15.1807 1.9634 10.4591 1.83404ZM19.5645 8.81627C19.5812 8.86268 19.5957 8.90172 19.6175 8.9285C19.632 8.88947 19.6199 8.85531 19.6175 8.81139C18.8189 4.40055 15.0359 1.10461 10.3433 1.10461C5.09103 1.10461 0.84234 5.4106 0.84234 10.7192C0.84234 11.9731 1.15846 13.1687 1.58793 14.264C1.78578 14.7688 2.41781 15.9205 2.57223 16.1473C2.606 16.196 2.62048 16.2204 2.65908 16.2498C2.65672 16.2034 2.65437 16.1814 2.63013 16.1253C2.60354 16.0789 2.06555 15.0421 1.75436 14.2711C1.48896 13.6076 1.15846 12.2855 1.15846 10.7532C1.15846 5.60318 5.29134 1.42405 10.3843 1.42405C13.0479 1.42644 15.5523 2.74141 17.0866 4.44435C18.252 5.73753 18.8552 6.60608 19.5645 8.81627ZM2.66627 15.2813L2.45641 15.3595C3.81956 17.9943 6.67851 19.9094 10.324 19.9094C15.4967 19.9119 19.632 15.679 19.632 10.5729C19.632 9.32374 19.2749 8.55777 19.0747 8.004C18.9276 7.58924 18.6114 6.95241 18.4715 6.69142C18.4425 6.64013 18.4233 6.61822 18.3847 6.58656C18.387 6.63286 18.3896 6.65975 18.4184 6.71104C18.5271 6.92812 18.7682 7.47463 18.9394 8.02352C19.1711 8.75295 19.3158 9.57021 19.3158 10.573C19.3158 12.166 18.8214 13.7957 18.0927 15.0935C18.1338 15.2008 18.095 15.2546 17.9721 15.2888C16.382 17.8749 13.5472 19.5679 10.3215 19.5655C7.29124 19.5655 4.86895 17.9235 4.10416 17.0722C3.48178 16.3792 3.021 15.8645 2.66627 15.2813ZM9.84392 10.1777L10.2444 10.4143L10.2952 4.11754C10.2952 3.99067 10.2567 3.98579 10.2469 4.11266L9.84392 10.1777ZM10.5435 10.6534L15.9309 13.8419C16.0274 13.8981 16.0467 13.8639 15.9552 13.803L10.9538 10.4143L10.5435 10.6534ZM9.72328 10.4338L8.36979 11.5537C8.29505 11.617 8.32882 11.6463 8.41804 11.5952L10.1069 10.6486L9.72328 10.4338Z" fill="black"/>
</g>
<defs>
<clipPath id="clip0_17_13">
<rect width="20" height="20" fill="white" transform="translate(0.0305786 0.176331)"/>
</clipPath>
</defs>
</svg>
